<svg width="1200" height="630" viewBox="0 0 1200 630" fill="none" xmlns="http://www.w3.org/2000/svg">
  <defs>
    <linearGradient id="bg" x1="120" y1="60" x2="1100" y2="590" gradientUnits="userSpaceOnUse">
      <stop stop-color="#0D1117"/>
      <stop offset="1" stop-color="#090B0F"/>
    </linearGradient>
    <radialGradient id="pink" cx="0" cy="0" r="1" gradientUnits="userSpaceOnUse" gradientTransform="translate(410 120) rotate(35) scale(420 220)">
      <stop stop-color="#FF5CAD" stop-opacity="0.24"/>
      <stop offset="1" stop-color="#FF5CAD" stop-opacity="0"/>
    </radialGradient>
    <radialGradient id="green" cx="0" cy="0" r="1" gradientUnits="userSpaceOnUse" gradientTransform="translate(920 420) rotate(-12) scale(360 240)">
      <stop stop-color="#39D353" stop-opacity="0.22"/>
      <stop offset="1" stop-color="#39D353" stop-opacity="0"/>
    </radialGradient>
    <filter id="shadow" x="40" y="40" width="1120" height="550" filterUnits="userSpaceOnUse" color-interpolation-filters="sRGB">
      <feDropShadow dx="0" dy="28" stdDeviation="30" flood-color="#000000" flood-opacity="0.35"/>
    </filter>
  </defs>

  <rect width="1200" height="630" fill="url(#bg)"/>
  <rect width="1200" height="630" fill="url(#pink)"/>
  <rect width="1200" height="630" fill="url(#green)"/>

  <g opacity="0.18">
    <path d="M0 520H1200" stroke="#FFFFFF" stroke-opacity="0.08"/>
    <path d="M0 350H1200" stroke="#FFFFFF" stroke-opacity="0.05"/>
    <path d="M0 180H1200" stroke="#FFFFFF" stroke-opacity="0.04"/>
    <path d="M180 0V630" stroke="#FFFFFF" stroke-opacity="0.04"/>
    <path d="M420 0V630" stroke="#FFFFFF" stroke-opacity="0.03"/>
    <path d="M660 0V630" stroke="#FFFFFF" stroke-opacity="0.03"/>
    <path d="M900 0V630" stroke="#FFFFFF" stroke-opacity="0.04"/>
  </g>

  <g filter="url(#shadow)">
    <rect x="68" y="74" width="1064" height="482" rx="28" fill="#11161D" fill-opacity="0.92" stroke="rgba(255,255,255,0.10)"/>
    <rect x="68" y="74" width="1064" height="64" rx="28" fill="#151B23"/>
    <circle cx="108" cy="106" r="6" fill="#FF5F57"/>
    <circle cx="130" cy="106" r="6" fill="#FEBC2E"/>
    <circle cx="152" cy="106" r="6" fill="#28C840"/>
    <text x="188" y="112" fill="#B4BAC3" font-family="ui-monospace, SFMono-Regular, Menlo, monospace" font-size="20">sloparena.up.railway.app</text>

    <text x="104" y="224" fill="#F5F7FB" font-family="Inter, Arial, sans-serif" font-size="68" font-weight="600" letter-spacing="-3">Welcome to the</text>
    <text x="104" y="296" fill="#F5F7FB" font-family="Inter, Arial, sans-serif" font-size="86" font-weight="700" letter-spacing="-4">Slop Arena</text>
    <text x="104" y="352" fill="#AAB1BB" font-family="Inter, Arial, sans-serif" font-size="30">CLI-first leaderboard for Claude Code and Codex power users.</text>

    <rect x="104" y="402" width="444" height="72" rx="16" fill="#0F141B" stroke="#FFFFFF" stroke-opacity="0.10"/>
    <text x="132" y="448" fill="#F5F7FB" font-family="ui-monospace, SFMono-Regular, Menlo, monospace" font-size="30">npx sloparena go</text>
    <rect x="496" y="420" width="34" height="34" rx="8" fill="#151B23" stroke="#FFFFFF" stroke-opacity="0.10"/>
    <rect x="510" y="428" width="12" height="12" rx="3" fill="none" stroke="#C9CED6" stroke-width="2"/>
    <rect x="503" y="435" width="12" height="12" rx="3" fill="none" stroke="#C9CED6" stroke-width="2"/>

    <text x="104" y="514" fill="#5EDB73" font-family="ui-monospace, SFMono-Regular, Menlo, monospace" font-size="18" letter-spacing="3">PUBLIC RECEIPTS • GITHUB VERIFIED • OPEN SOURCE</text>

    <g transform="translate(594 160)">
      <circle cx="94" cy="94" r="94" fill="rgba(255,255,255,0.03)" stroke="rgba(255,255,255,0.08)"/>
      <circle cx="94" cy="94" r="72" fill="rgba(57,211,83,0.08)"/>
      <g transform="translate(40 40) scale(3)">
        <path fill="#CCD6DC" d="M35.858 17.376L.079 17.053v11.821c.011 1.084 1.009 2.12 2.52 3.028l2.396 1.133c.732.278 1.531.534 2.393.766l3.585.762c.791.127 1.615.232 2.46.32l9.328.088a43.678 43.678 0 0 0 2.524-.285l3.57-.707a24.447 24.447 0 0 0 2.378-.73l2.374-1.098c1.507-.893 2.262-1.923 2.251-3.013V17.376z"/>
        <path fill="#66757F" d="M22.885 30.848c-.043-4.36-2.19-5.47-4.825-5.493c-2.634-.024-4.759 1.047-4.716 5.407c.016 1.606.046 2.96.089 4.12c1.504.156 3.079.254 4.712.269c1.6.014 3.141-.054 4.616-.18c.097-1.003.142-2.341.124-4.123zM10.917 28.89l.001.107l.003.364l.003.271l.001.065c.001.052 0 .044 0 0l-.001-.065l-.003-.271l-.003-.364l-.001-.107l-.001-.122c-.022-2.18-3.61-3.303-3.589-1.122v.037l.002.204l.002.158l.005.47l.001.067l.051 5.218c1.106.297 2.302.556 3.585.762l-.056-5.753v.081zm17.878-.992l.005.506v.027l.003.27c.001.118.001.15 0 0l-.003-.27v-.027l-.005-.506l-.001-.058c-.022-2.18-3.589-1.123-3.567 1.057v.036l.057 5.753a34.49 34.49 0 0 0 3.57-.707l-.06-6.1l.001.019zM4.931 26.534c-.022-2.18-2.417-3.292-2.396-1.112v.041l.063 6.439c.676.406 1.483.785 2.396 1.133l-.052-5.321c.003.208.006.582-.011-1.18zm26.237.237l.012 1.137v-.047v.047l.053 5.34c.906-.334 1.705-.701 2.374-1.098l-.064-6.448c-.021-2.18-2.396-1.111-2.375 1.069zM2.972 5.225a.5.5 0 0 0-.5.5v12.37a.5.5 0 0 0 1 0V5.725c0-.277-.223-.5-.5-.5z"/>
        <path fill="#DD2F45" d="M3.207 5.936c1.478.269 3.682 1.102 4.246 1.424c.564.322.215.484-.322.725c-.538.242-3.441 1.021-3.87 1.102c-.431.082-.054-3.251-.054-3.251z"/>
        <path fill="#66757F" d="M11.969 2.976a.5.5 0 0 0-.5.5v12.37a.5.5 0 0 0 1 0V3.476a.5.5 0 0 0-.5-.5z"/>
        <path fill="#226798" d="M12.203 3.687c1.478.269 3.682 1.102 4.247 1.425c.564.322.215.484-.322.725c-.538.242-3.44 1.021-3.87 1.102c-.432.081-.055-3.252-.055-3.252z"/>
        <path fill="#66757F" d="M21.339 2.976a.5.5 0 0 0-.5.5v12.37a.5.5 0 0 0 1 0V3.476a.5.5 0 0 0-.5-.5z"/>
        <path fill="#DD2F45" d="M21.574 3.687c1.478.269 3.681 1.102 4.246 1.425c.564.322.215.484-.322.725c-.537.242-3.44 1.021-3.871 1.102c-.431.081-.053-3.252-.053-3.252z"/>
        <path fill="#66757F" d="M30.335 5.225a.5.5 0 0 0-.5.5v12.37a.5.5 0 0 0 1 0V5.725a.5.5 0 0 0-.5-.5z"/>
        <path fill="#226798" d="M30.57 5.936c1.478.269 3.681 1.102 4.246 1.425c.564.322.215.484-.322.725c-.537.242-3.44 1.021-3.871 1.102c-.43.081-.053-3.252-.053-3.252z"/>
        <path fill="#E9EFF3" d="M35.858 17.444c.033 3.312-7.949 5.924-17.829 5.835C8.148 23.19.112 20.431.08 17.121c-.033-3.312 7.95-5.924 17.83-5.835c9.879.09 17.915 2.847 17.948 6.158z"/>
        <path fill="#7450A0" d="M33.257 18.209c.029 2.995-6.788 5.361-15.226 5.286c-8.44-.077-15.305-2.567-15.334-5.562c-.029-2.994 6.787-5.36 15.227-5.284c8.437.077 15.304 2.566 15.333 5.56z"/>
        <path fill="#E9EFF3" d="M26.766 19.378l5.83-3.939l-1.8-1.106s-3.63 3.394-4.822 4.548c-.876-.455-2.073-.837-3.486-1.104l2.439-5.303l-2.463-.294l-1.094 5.419a26.979 26.979 0 0 0-3.401-.244a27.665 27.665 0 0 0-2.671.106l-1.183-5.357l-2.457.251l2.491 5.235c-1.64.226-3.037.604-4.036 1.085c-1.271-1.227-4.847-4.573-4.847-4.573l-1.778 1.074l5.814 3.98c-.541.397-.847.84-.843 1.311c.018 1.766 4.303 3.237 9.573 3.285c5.268.048 9.527-1.346 9.51-3.113c-.004-.445-.281-.872-.776-1.261z"/>
        <path fill="#5C903F" d="M26.427 20.862c.013 1.321-3.732 2.357-8.363 2.315c-4.631-.042-8.396-1.146-8.409-2.467c-.013-1.32 3.731-2.356 8.362-2.314c4.63.041 8.396 1.146 8.41 2.466z"/>
      </g>
    </g>

    <rect x="706" y="174" width="354" height="268" rx="20" fill="#0E1319" stroke="#FFFFFF" stroke-opacity="0.08"/>
    <text x="736" y="212" fill="#9EA6B2" font-family="ui-monospace, SFMono-Regular, Menlo, monospace" font-size="14" letter-spacing="2">TODAY’S WINNERS</text>
    <text x="736" y="260" fill="#F5F7FB" font-family="Inter, Arial, sans-serif" font-size="44" font-weight="650">@raunak42</text>
    <text x="736" y="294" fill="#9EA6B2" font-family="Inter, Arial, sans-serif" font-size="21">gpt-5.4 · 21.0B total</text>
    <rect x="736" y="322" width="284" height="12" rx="6" fill="#20262D"/>
    <rect x="736" y="322" width="284" height="12" rx="6" fill="#39D353"/>

    <text x="736" y="380" fill="#9EA6B2" font-family="ui-monospace, SFMono-Regular, Menlo, monospace" font-size="14" letter-spacing="2">YEAR GRID</text>
    <g transform="translate(736 398)">
      <rect x="0" y="0" width="10" height="10" rx="2" fill="#161B22"/>
      <rect x="16" y="0" width="10" height="10" rx="2" fill="#161B22"/>
      <rect x="32" y="0" width="10" height="10" rx="2" fill="#0E4429"/>
      <rect x="48" y="0" width="10" height="10" rx="2" fill="#006D32"/>
      <rect x="64" y="0" width="10" height="10" rx="2" fill="#26A641"/>
      <rect x="80" y="0" width="10" height="10" rx="2" fill="#39D353"/>
      <rect x="96" y="0" width="10" height="10" rx="2" fill="#26A641"/>
      <rect x="112" y="0" width="10" height="10" rx="2" fill="#39D353"/>
      <rect x="128" y="0" width="10" height="10" rx="2" fill="#0E4429"/>
      <rect x="144" y="0" width="10" height="10" rx="2" fill="#006D32"/>
      <rect x="0" y="16" width="10" height="10" rx="2" fill="#161B22"/>
      <rect x="16" y="16" width="10" height="10" rx="2" fill="#0E4429"/>
      <rect x="32" y="16" width="10" height="10" rx="2" fill="#006D32"/>
      <rect x="48" y="16" width="10" height="10" rx="2" fill="#26A641"/>
      <rect x="64" y="16" width="10" height="10" rx="2" fill="#39D353"/>
      <rect x="80" y="16" width="10" height="10" rx="2" fill="#26A641"/>
      <rect x="96" y="16" width="10" height="10" rx="2" fill="#39D353"/>
      <rect x="112" y="16" width="10" height="10" rx="2" fill="#39D353"/>
      <rect x="128" y="16" width="10" height="10" rx="2" fill="#26A641"/>
      <rect x="144" y="16" width="10" height="10" rx="2" fill="#161B22"/>
      <rect x="0" y="32" width="10" height="10" rx="2" fill="#006D32"/>
      <rect x="16" y="32" width="10" height="10" rx="2" fill="#26A641"/>
      <rect x="32" y="32" width="10" height="10" rx="2" fill="#39D353"/>
      <rect x="48" y="32" width="10" height="10" rx="2" fill="#26A641"/>
      <rect x="64" y="32" width="10" height="10" rx="2" fill="#39D353"/>
      <rect x="80" y="32" width="10" height="10" rx="2" fill="#0E4429"/>
      <rect x="96" y="32" width="10" height="10" rx="2" fill="#006D32"/>
      <rect x="112" y="32" width="10" height="10" rx="2" fill="#26A641"/>
      <rect x="128" y="32" width="10" height="10" rx="2" fill="#39D353"/>
      <rect x="144" y="32" width="10" height="10" rx="2" fill="#26A641"/>
    </g>
  </g>
</svg>
